HIERARCHY
ROOT Hips
{
	OFFSET 0.000000 35.082581 0.000000
	CHANNELS 6 Xposition Yposition Zposition Xrotation Yrotation Zrotation 
	JOINT Spine
	{
		OFFSET 0.000000 6.876099 0.125700
		CHANNELS 3 Xrotation Yrotation Zrotation
		JOINT Spine1
		{
			OFFSET 0.000000 5.730043 0.104720
			CHANNELS 3 Xrotation Yrotation Zrotation
			JOINT Spine1_split
			{
				OFFSET 0.000000 5.730043 0.104720
				CHANNELS 3 Xrotation Yrotation Zrotation
				JOINT Spine2
				{
					OFFSET 0.000000 5.730043 0.104720
					CHANNELS 3 Xrotation Yrotation Zrotation
					JOINT Neck
					{
						OFFSET 0.000000 10.314075 0.188496
						CHANNELS 3 Xrotation Yrotation Zrotation
						JOINT Head
						{
							OFFSET 0.000000 7.643700 -2.377400
							CHANNELS 3 Xrotation Yrotation Zrotation
							JOINT HeadTop_End
							{
								OFFSET 0.000000 43.788605 -13.619600
								CHANNELS 3 Xrotation Yrotation Zrotation
								End Site
								{
									OFFSET 0.000000 0.000000 0.000000
								}
							}
						}
					}
					JOINT LeftShoulder
					{
						OFFSET 2.196100 4.412489 0.087492
						CHANNELS 3 Xrotation Yrotation Zrotation
						JOINT LeftShoulder_split
						{
							OFFSET 2.196100 4.412489 0.087492
							CHANNELS 3 Xrotation Yrotation Zrotation
							JOINT LeftArm
							{
								OFFSET 8.771219 -2.981674 -0.026999
								CHANNELS 3 Xrotation Yrotation Zrotation
								JOINT LeftForeArm
								{
									OFFSET 8.512804 0.000000 -0.000000
									CHANNELS 3 Xrotation Yrotation Zrotation
									JOINT LeftHand
									{
										OFFSET 18.484802 0.000000 -0.000000
										CHANNELS 3 Xrotation Yrotation Zrotation
										JOINT LeftHandThumb1
										{
											OFFSET 2.499420 -1.158070 2.653252
											CHANNELS 3 Xrotation Yrotation Zrotation
											JOINT LeftHandThumb2
											{
												OFFSET 2.370079 -1.368366 1.368366
												CHANNELS 3 Xrotation Yrotation Zrotation
												JOINT LeftHandThumb3
												{
													OFFSET 2.676727 -1.545410 1.545409
													CHANNELS 3 Xrotation Yrotation Zrotation
													JOINT LeftHandThumb4
													{
														OFFSET 1.692226 -0.977005 0.977007
														CHANNELS 3 Xrotation Yrotation Zrotation
														End Site
														{
															OFFSET 0.000000 0.000000 0.000000
														}
													}
												}
											}
										}
										JOINT LeftHandIndex1
										{
											OFFSET 7.924831 -0.457527 2.345128
											CHANNELS 3 Xrotation Yrotation Zrotation
											JOINT LeftHandIndex2
											{
												OFFSET 3.643303 0.000000 0.000000
												CHANNELS 3 Xrotation Yrotation Zrotation
												JOINT LeftHandIndex3
												{
													OFFSET 3.810799 0.000000 0.000000
													CHANNELS 3 Xrotation Yrotation Zrotation
													JOINT LeftHandIndex4
													{
														OFFSET 2.403702 0.000000 0.000000
														CHANNELS 3 Xrotation Yrotation Zrotation
														End Site
														{
															OFFSET 0.000000 0.000000 0.000000
														}
													}
												}
											}
										}
										JOINT LeftHandMiddle1
										{
											OFFSET 8.563995 0.000000 -0.000000
											CHANNELS 3 Xrotation Yrotation Zrotation
											JOINT LeftHandMiddle2
											{
												OFFSET 3.861618 0.000000 0.000000
												CHANNELS 3 Xrotation Yrotation Zrotation
												JOINT LeftHandMiddle3
												{
													OFFSET 3.701603 0.000000 0.000000
													CHANNELS 3 Xrotation Yrotation Zrotation
													JOINT LeftHandMiddle4
													{
														OFFSET 2.322544 0.000000 0.000000
														CHANNELS 3 Xrotation Yrotation Zrotation
														End Site
														{
															OFFSET 0.000000 0.000000 0.000000
														}
													}
												}
											}
										}
										JOINT LeftHandRing1
										{
											OFFSET 8.426460 -0.424637 -3.286992
											CHANNELS 3 Xrotation Yrotation Zrotation
											JOINT LeftHandRing2
											{
												OFFSET 3.126408 0.000000 0.000000
												CHANNELS 3 Xrotation Yrotation Zrotation
												JOINT LeftHandRing3
												{
													OFFSET 3.085026 0.000000 0.000000
													CHANNELS 3 Xrotation Yrotation Zrotation
													JOINT LeftHandRing4
													{
														OFFSET 1.644005 0.000000 0.000000
														CHANNELS 3 Xrotation Yrotation Zrotation
														End Site
														{
															OFFSET 0.000000 0.000000 0.000000
														}
													}
												}
											}
										}
									}
								}
							}
						}
					}
					JOINT RightShoulder
					{
						OFFSET -2.196100 4.412496 0.070690
						CHANNELS 3 Xrotation Yrotation Zrotation
						JOINT RightShoulder_split
						{
							OFFSET -2.196100 4.412496 0.070690
							CHANNELS 3 Xrotation Yrotation Zrotation
							JOINT RightArm
							{
								OFFSET -8.771282 -2.981682 -0.094208
								CHANNELS 3 Xrotation Yrotation Zrotation
								JOINT RightForeArm
								{
									OFFSET -8.494598 0.000000 0.000000
									CHANNELS 3 Xrotation Yrotation Zrotation
									JOINT RightHand
									{
										OFFSET -18.483803 0.000000 0.000001
										CHANNELS 3 Xrotation Yrotation Zrotation
										JOINT RightHandThumb1
										{
											OFFSET -2.527351 -1.008072 2.575253
											CHANNELS 3 Xrotation Yrotation Zrotation
											JOINT RightHandThumb2
											{
												OFFSET -2.321518 -1.340328 1.340329
												CHANNELS 3 Xrotation Yrotation Zrotation
												JOINT RightHandThumb3
												{
													OFFSET -2.657753 -1.534454 1.534455
													CHANNELS 3 Xrotation Yrotation Zrotation
													JOINT RightHandThumb4
													{
														OFFSET -1.807510 -1.043568 1.043567
														CHANNELS 3 Xrotation Yrotation Zrotation
														End Site
														{
															OFFSET 0.000000 0.000000 0.000000
														}
													}
												}
											}
										}
										JOINT RightHandIndex1
										{
											OFFSET -8.811420 0.015533 2.887987
											CHANNELS 3 Xrotation Yrotation Zrotation
											JOINT RightHandIndex2
											{
												OFFSET -3.537502 0.000000 0.000000
												CHANNELS 3 Xrotation Yrotation Zrotation
												JOINT RightHandIndex3
												{
													OFFSET -3.356201 0.000000 0.000000
													CHANNELS 3 Xrotation Yrotation Zrotation
													JOINT RightHandIndex4
													{
														OFFSET -1.933098 0.000000 0.000000
														CHANNELS 3 Xrotation Yrotation Zrotation
														End Site
														{
															OFFSET 0.000000 0.000000 0.000000
														}
													}
												}
											}
										}
										JOINT RightHandMiddle1
										{
											OFFSET -8.178135 0.000000 0.000000
											CHANNELS 3 Xrotation Yrotation Zrotation
											JOINT RightHandMiddle2
											{
												OFFSET -3.901302 0.000000 0.000000
												CHANNELS 3 Xrotation Yrotation Zrotation
												JOINT RightHandMiddle3
												{
													OFFSET -3.909599 0.000000 0.000000
													CHANNELS 3 Xrotation Yrotation Zrotation
													JOINT RightHandMiddle4
													{
														OFFSET -2.376003 0.000000 0.000000
														CHANNELS 3 Xrotation Yrotation Zrotation
														End Site
														{
															OFFSET 0.000000 0.000000 0.000000
														}
													}
												}
											}
										}
										JOINT RightHandRing1
										{
											OFFSET -7.559013 0.014137 -2.865403
											CHANNELS 3 Xrotation Yrotation Zrotation
											JOINT RightHandRing2
											{
												OFFSET -3.449306 0.000000 0.000000
												CHANNELS 3 Xrotation Yrotation Zrotation
												JOINT RightHandRing3
												{
													OFFSET -3.362106 0.000000 0.000000
													CHANNELS 3 Xrotation Yrotation Zrotation
													JOINT RightHandRing4
													{
														OFFSET -2.076401 0.000000 0.000000
														CHANNELS 3 Xrotation Yrotation Zrotation
														End Site
														{
															OFFSET 0.000000 0.000000 0.000000
														}
													}
												}
											}
										}
									}
								}
							}
						}
					}
				}
			}
		}
	}
	JOINT LeftUpLeg
	{
		OFFSET 10.205400 -3.823500 0.155100
		CHANNELS 3 Xrotation Yrotation Zrotation
		JOINT LeftLeg
		{
			OFFSET 0.708757 -12.982077 0.567790
			CHANNELS 3 Xrotation Yrotation Zrotation
			JOINT LeftFoot
			{
				OFFSET -0.708756 -10.717838 -2.184338
				CHANNELS 3 Xrotation Yrotation Zrotation
				JOINT LeftToeBase
				{
					OFFSET 0.108149 -7.191104 7.560241
					CHANNELS 3 Xrotation Yrotation Zrotation
					JOINT LeftToe_End
					{
						OFFSET 0.070230 0.081724 4.490308
						CHANNELS 3 Xrotation Yrotation Zrotation
						End Site
						{
							OFFSET 0.000000 0.000000 0.000000
						}
					}
				}
			}
		}
	}
	JOINT RightUpLeg
	{
		OFFSET -10.205400 -3.823500 0.005500
		CHANNELS 3 Xrotation Yrotation Zrotation
		JOINT RightLeg
		{
			OFFSET -0.708756 -12.982134 0.610632
			CHANNELS 3 Xrotation Yrotation Zrotation
			JOINT RightFoot
			{
				OFFSET 0.708754 -10.717769 -1.945823
				CHANNELS 3 Xrotation Yrotation Zrotation
				JOINT RightToeBase
				{
					OFFSET -0.108140 -7.191069 7.372968
					CHANNELS 3 Xrotation Yrotation Zrotation
					JOINT RightToe_End
					{
						OFFSET -0.070227 0.081735 4.479403
						CHANNELS 3 Xrotation Yrotation Zrotation
						End Site
						{
							OFFSET 0.000000 0.000000 0.000000
						}
					}
				}
			}
		}
	}
}
MOTION
Frames: 4
Frame Time: 0.016667
0.321761 20.622032 7.168423 0.146431 0.062094 0.899403 10.430033 0.129114 -1.531437 -0.199271 0.216427 -0.355483 0.000000 0.000000 0.000000 -0.199593 0.248527 -0.300892 -1.001769 -1.276608 0.469464 -8.883414 -4.319392 -5.320496 -0.000000 0.000000 -0.000000 0.823514 -15.262032 -7.868725 0.000000 0.000000 0.000000 4.746742 -21.216407 -54.862214 -0.000013 -62.197567 -0.000027 31.062976 4.315264 41.770206 6.610605 1.798217 20.801498 2.716381 20.172569 -24.389158 -5.537237 29.849528 5.070909 -0.000001 0.000003 -0.000002 -0.224162 2.792779 -26.913881 0.396829 2.121274 -21.189289 0.083128 0.984458 -9.653149 0.000003 -0.000001 -0.000001 1.299135 7.334326 -16.510937 0.329958 1.940104 -19.302442 0.233328 1.638445 -16.208126 0.000003 0.000000 -0.000001 1.797248 9.808456 -14.182655 0.205958 1.541211 -15.221562 0.265317 1.744721 -17.292067 -0.000002 -0.000001 0.000001 3.171096 -4.378723 8.782883 0.000000 0.000000 0.000000 -3.950247 37.253412 63.733663 0.000013 55.137932 -0.000020 43.537272 4.741010 -36.277973 -9.383522 -1.613349 -17.604705 3.563422 -24.331427 34.658815 -6.607949 -37.497189 -11.176204 0.000001 0.000001 -0.000005 2.952119 1.011181 13.530156 0.472461 -2.045702 26.006739 0.059761 -0.744403 9.177800 0.000001 -0.000001 0.000003 0.105323 -3.658224 2.530017 0.585002 -2.261683 29.000645 0.020465 -0.436572 5.367127 0.000000 -0.000000 0.000003 0.455250 -7.625810 4.309855 0.107469 -0.995709 12.318857 0.072397 -0.818822 10.104479 -0.000001 -0.000000 0.000002 -89.273912 -11.582081 17.430127 89.689461 -1.232364 -0.776212 1.818752 -5.709067 -11.318793 -0.103107 0.000002 0.000005 -0.000000 -0.000002 -0.000000 -90.866467 13.468833 -13.928921 91.654916 2.350275 -0.975030 1.985586 -1.504991 12.899035 -0.195509 0.000010 0.000004 0.000000 0.000001 -0.000000 
0.320928 20.622791 7.182798 0.222919 0.073459 0.899164 10.466669 0.126827 -1.531322 -0.063331 0.215446 -0.380943 0.000000 0.000000 0.000000 -0.135201 0.251406 -0.311500 -0.819937 -1.276514 0.424692 -9.824157 -4.410229 -5.195475 -0.000000 0.000000 -0.000001 1.153607 -14.769739 -6.772566 0.000000 0.000000 0.000000 2.903370 -20.762704 -57.237716 0.000028 -61.769649 0.000045 32.795187 3.652906 41.345054 6.533097 1.838485 20.872493 2.677528 20.203957 -24.333471 -5.498090 29.834451 4.956431 -0.000001 -0.000002 -0.000000 -0.213802 2.829567 -27.080109 0.399395 2.127920 -21.258954 0.083544 0.986928 -9.677622 0.000001 -0.000001 -0.000000 1.306672 7.335263 -16.626924 0.323878 1.922682 -19.122288 0.233322 1.638460 -16.208160 -0.000001 -0.000003 0.000002 1.816459 9.843957 -14.270841 0.205427 1.539285 -15.202376 0.268401 1.754576 -17.392862 -0.000000 0.000001 0.000000 3.187849 -4.727844 8.245289 0.000000 0.000000 0.000000 -4.932277 37.148398 65.022117 0.000025 54.880112 -0.000017 44.176499 5.104109 -36.335380 -9.372628 -1.608893 -17.589732 3.594638 -24.360879 34.677376 -6.576847 -37.532706 -11.143428 0.000004 -0.000001 0.000003 2.953647 1.011729 13.517892 0.476482 -2.053916 26.119046 0.060224 -0.747275 9.213528 0.000000 -0.000002 0.000002 0.105332 -3.658242 2.530062 0.587661 -2.266497 29.068063 0.020252 -0.434271 5.338712 -0.000000 -0.000001 0.000003 0.455261 -7.625856 4.309879 0.108256 -0.999304 12.364090 0.071740 -0.815132 10.058755 0.000001 0.000001 -0.000000 -89.459127 -11.552050 17.331573 89.779920 -1.144469 -0.736774 1.861970 -5.695805 -11.111270 -0.115859 0.000001 0.000001 0.000000 -0.000001 0.000000 -91.013261 13.498735 -13.841383 91.872670 2.310485 -1.025984 1.928656 -1.577123 12.806872 -0.232721 -0.000009 0.000002 0.000000 -0.000001 0.000000 
0.318791 20.628983 7.198115 0.271488 0.082972 0.900049 10.537724 0.123282 -1.532023 0.117322 0.217353 -0.407599 0.000000 0.000000 0.000000 -0.022414 0.256674 -0.330249 -0.608622 -1.274648 0.376579 -10.758936 -4.494757 -5.054918 -0.000000 0.000000 0.000000 1.483752 -14.226186 -5.573876 0.000000 0.000000 0.000000 1.069117 -20.426968 -59.574201 0.000007 -61.355098 0.000008 34.405948 2.995953 41.065092 6.452948 1.879041 20.945117 2.637593 20.235369 -24.276313 -5.454164 29.824089 4.818365 -0.000001 0.000005 -0.000002 -0.202175 2.869520 -27.281746 0.403268 2.137816 -21.362730 0.083950 0.989256 -9.700726 0.000001 0.000000 0.000002 1.314177 7.336105 -16.743273 0.317874 1.905281 -18.942382 0.233317 1.638465 -16.208143 0.000001 0.000001 0.000001 1.837817 9.880274 -14.375277 0.203786 1.533236 -15.140793 0.273335 1.770289 -17.553878 0.000002 -0.000001 -0.000000 3.198767 -5.102190 7.675789 0.000000 0.000000 0.000000 -5.994468 37.040171 66.362371 -0.000000 54.665743 -0.000005 44.858422 5.503228 -36.428882 -9.351727 -1.600126 -17.560039 3.651732 -24.412445 34.712346 -6.515470 -37.600389 -11.078764 0.000002 0.000000 0.000005 2.954277 1.012349 13.493648 0.483866 -2.068895 26.324290 0.061125 -0.752854 9.282808 0.000000 -0.000000 0.000003 0.105325 -3.658239 2.530051 0.592575 -2.275303 29.192092 0.019816 -0.429630 5.281565 0.000001 -0.000000 -0.000000 0.455260 -7.625833 4.309873 0.109727 -1.006022 12.448371 0.070505 -0.808165 9.971750 0.000001 -0.000001 0.000002 -89.647797 -11.570044 17.264988 89.787843 -1.104981 -0.685939 2.188436 -5.637196 -11.107392 -0.135798 0.000002 0.000000 0.000000 0.000000 0.000000 -91.188763 13.523797 -13.712719 92.078422 2.300619 -1.119800 2.059858 -1.686852 12.768921 -0.249307 -0.000008 0.012446 0.000000 0.000000 -0.000000 
0.315781 20.639473 7.214121 0.304302 0.091663 0.901691 10.628820 0.119290 -1.533211 0.315338 0.220705 -0.432224 0.000000 0.000000 0.000000 0.118230 0.263075 -0.353243 -0.378665 -1.271492 0.326493 -11.685036 -4.574094 -4.904682 -0.000000 -0.000000 0.000000 1.802066 -13.648143 -4.308318 0.000000 0.000000 0.000000 -0.710272 -20.139146 -61.883420 0.000011 -60.953667 0.000002 35.923687 2.343214 40.900873 6.371245 1.919640 21.018731 2.597045 20.266833 -24.218307 -5.407431 29.816330 4.666558 -0.000003 0.000001 -0.000000 -0.189490 2.911281 -27.505114 0.407937 2.149731 -21.487806 0.084336 0.991521 -9.723024 -0.000000 0.000002 -0.000003 1.321727 7.336926 -16.860346 0.311927 1.887872 -18.762632 0.233319 1.638451 -16.208094 0.000002 0.000001 0.000003 1.860521 9.917040 -14.489249 0.201467 1.524653 -15.054177 0.279490 1.789587 -17.751496 -0.000002 -0.000000 0.000002 3.202634 -5.492620 7.084916 0.000000 0.000000 0.000000 -7.091219 36.919700 67.729317 0.000016 54.479382 0.000008 45.560329 5.928812 -36.554687 -9.324218 -1.588510 -17.520805 3.726555 -24.479058 34.758225 -6.434060 -37.689093 -10.992987 0.000000 0.000000 -0.000000 2.954051 1.012886 13.461918 0.493627 -2.088508 26.593558 0.062336 -0.760205 9.374075 -0.000001 -0.000001 0.000002 0.105320 -3.658243 2.530005 0.599077 -2.286867 29.355118 0.019260 -0.423537 5.206499 0.000000 -0.000001 -0.000002 0.455251 -7.625771 4.309856 0.111688 -1.014852 12.559489 0.068914 -0.799024 9.857618 -0.000001 0.000000 -0.000002 -89.873460 -11.601356 17.184606 89.911237 -1.060146 -0.608553 2.359917 -5.512420 -11.154848 -0.161307 0.000003 0.000002 -0.000000 -0.000001 -0.000000 -91.388320 13.530557 -13.544753 92.278075 2.295094 -1.247321 2.300711 -1.826796 12.734887 -0.354452 -0.000484 0.190277 0.000000 -0.000000 0.000000 
